<?xml version="1.0" encoding="utf-8"?>
<!-- Generator: Adobe Illustrator 21.0.2, SVG Export Plug-In . SVG Version: 6.00 Build 0)  -->
<svg version="1.1" id="圖層_1" xmlns="http://www.w3.org/2000/svg" xmlns:xlink="http://www.w3.org/1999/xlink" x="0px" y="0px"
	 viewBox="0 0 140 54" enable-background="new 0 0 140 54" xml:space="preserve">
<g>
	<g>
		<path fill="#FFFFFF" d="M133.4,18.2c-3.9-3.9-9.1-6-14.6-6c-5.3,0-10.3,2-14.2,5.7c-1-2.1-2.8-3.9-6.4-3.9c0,2.2,0,5.9,0,9.8
			l-8.7,8c-0.2-4.9-2.2-9.8-6-13.5c-8-8-21-8-29-0.1v-8c0,0,0.6-9.5-7.5-9.5c0,6.1,0,25,0,25h0l0,0c0,0,7,3.2,12.6-2.1
			c5.6-5.3,13.5-5.1,18.6,0c5.1,5.1,5.1,13.3,0.1,18.5l0,0l-0.1,0.1c-5.1,5.1-13.5,5.1-18.6,0c0.3,0.3,0.6,0.6,0.9,0.8
			c-0.3-0.3-0.6-0.5-0.9-0.8L47.7,30.1l0,0L35.8,18.2c-4-4-9.3-6-14.6-6c-4.7,0-9.3,1.6-13.1,4.7v-6.8c0,0,0.6-9.5-7.5-9.5
			c0,6.1,0,32.2,0,32.2h0c0,5.3,2,10.6,6,14.6c8,8,21.1,8,29.2,0l7.3-7.3c0,0-7-3.2-12.6,2.1c-5.6,5.3-13.5,5.1-18.6,0
			c-2.6-2.6-3.8-5.9-3.8-9.3h0v0c0-3.3,1.2-6.6,3.7-9.1l0.4-0.4c5.1-4.9,13.3-4.8,18.3,0.2l11.9,11.9h0l11.9,11.9c4,4,9.3,6,14.6,6
			c5.3,0,10.5-2,14.5-6l14.7-13.5c0,2.9,0,16.5,0,19.6c8.1,0,7.5-9.5,7.5-9.5V28.6V27l3.7-3.4l0.1-0.1c2.5-2.5,5.8-3.9,9.3-3.9
			c3.5,0,6.8,1.4,9.3,3.9c2.5,2.5,3.9,5.8,3.9,9.3v12.2c0.1,2.4,1,8.5,7.5,8.5V32.8C139.4,27.3,137.3,22.1,133.4,18.2z"/>
		<path fill="#FFFFFF" d="M98.8,7.8L98.8,7.8l3,3l3-3c1.7-1.7,1.7-4.4,0-6c0,0,0,0,0,0l0,0c-1.7-1.7-4.4-1.7-6,0
			C97.1,3.4,97.1,6.1,98.8,7.8z"/>
	</g>
	<path fill="#FFFFFF" d="M54.5,18.1v-8c0,0,0.6-9.5-7.5-9.5c0,6.1,0,25,0,25h0.2l7.2-7.3C54.4,18.2,54.4,18.1,54.5,18.1z"/>
	<path fill="#FFFFFF" d="M98.2,33.9c0,2.9,0,4.9,0,4.9c0,5.4,0,11.7,0,14.7c8.1,0,7.5-9.5,7.5-9.5v-5.2V28.6V27l-1.2,1.1L98.2,33.9z
		"/>
	<path fill="#FFFFFF" d="M6.8,18c0.4-0.4,0.8-0.8,1.3-1.1v-6.9c0,0,0.6-9.5-7.5-9.5c0,6.1,0,32.2,0,32.2h0c0-5.2,1.9-10.3,5.7-14.3
		L6.8,18z"/>
	<path fill="#FFFFFF" d="M83.5,18.2c-8-8-21-8-29-0.1c0,0-0.1,0.1-0.1,0.1l-7.2,7.2L47,25.5c0,0,7,3.2,12.6-2.1
		c5.6-5.3,13.5-5.1,18.6,0c5.1,5.1,5.1,13.3,0.1,18.5l11.1-10.2C89.2,26.8,87.3,21.9,83.5,18.2z"/>
	<path fill="#FFFFFF" d="M104.6,17.8c-1-2.1-2.8-3.9-6.4-3.9c0,2.2,0,5.9,0,9.8C98.2,23.7,104.5,17.9,104.6,17.8z"/>
</g>
</svg>
