<?xml version="1.0" encoding="utf-8"?>
<!-- Generator: Adobe Illustrator 21.0.2, SVG Export Plug-In . SVG Version: 6.00 Build 0)  -->
<svg version="1.1" id="圖層_1" xmlns="http://www.w3.org/2000/svg" xmlns:xlink="http://www.w3.org/1999/xlink" x="0px" y="0px"
	 viewBox="0 0 16 20" enable-background="new 0 0 16 20" xml:space="preserve">
<path fill="#FFFFFF" d="M13.8,0H2.2C1,0,0.1,0.9,0.1,2.1v15.8C0.1,19.1,1,20,2.2,20h11.7c1.1,0,2.1-0.9,2.1-2.1V2.1
	C15.9,0.9,15,0,13.8,0z M8,19.2c-0.7,0-1.3-0.6-1.3-1.3c0-0.7,0.6-1.3,1.3-1.3s1.3,0.6,1.3,1.3C9.3,18.6,8.7,19.2,8,19.2z
	 M14.3,15.8H1.8V2.5h12.5V15.8z"/>
</svg>
