<?xml version="1.0" encoding="utf-8"?>
<!-- Generator: Adobe Illustrator 21.0.2, SVG Export Plug-In . SVG Version: 6.00 Build 0)  -->
<svg version="1.1" id="圖層_1" xmlns="http://www.w3.org/2000/svg" xmlns:xlink="http://www.w3.org/1999/xlink" x="0px" y="0px"
	 viewBox="0 0 60 20" enable-background="new 0 0 60 20" xml:space="preserve">
<path fill="#FFFFFF" d="M20,0H2C0.9,0,0,0.9,0,2v12c0,1.1,0.9,2,2,2h7v2H7v2h8v-2h-2v-2h7c1.1,0,2-0.9,2-2V2C22,0.9,21.1,0,20,0z
	 M20,14H2V2h18V14z"/>
<path fill="#FFFFFF" d="M41.8,0H30.1c-1.2,0-2.1,0.9-2.1,2.1v15.8c0,1.2,0.9,2.1,2.1,2.1h11.7c1.1,0,2.1-0.9,2.1-2.1V2.1
	C43.8,0.9,43,0,41.8,0z M36,19.2c-0.7,0-1.3-0.6-1.3-1.3c0-0.7,0.6-1.3,1.3-1.3s1.3,0.6,1.3,1.3S36.7,19.2,36,19.2z M42.3,15.8H29.8
	V2.5h12.5V15.8z"/>
<path fill="#FFFFFF" d="M58.1,3h-6.2c-1,0-1.9,0.9-1.9,2v13.1c0,1.1,0.9,1.9,1.9,1.9h6.2c1.1,0,1.9-0.9,1.9-1.9V5
	C60,3.9,59.1,3,58.1,3z M55,19.2c-0.6,0-1.2-0.5-1.2-1.2s0.5-1.2,1.2-1.2c0.7,0,1.2,0.5,1.2,1.2S55.6,19.2,55,19.2z M58.5,16.1h-7
	V5.3h6.9L58.5,16.1L58.5,16.1z"/>
</svg>
