<?xml version="1.0" encoding="utf-8"?>
<!-- Generator: Adobe Illustrator 19.1.0, SVG Export Plug-In . SVG Version: 6.00 Build 0)  -->
<svg version="1.1" id="圖層_1" xmlns="http://www.w3.org/2000/svg" xmlns:xlink="http://www.w3.org/1999/xlink" x="0px" y="0px"
	 viewBox="0 0 138.8 52.9" style="enable-background:new 0 0 138.8 52.9;" xml:space="preserve">
<style type="text/css">
	.st0{fill:#FFFFFF;}
	.st1{fill:url(#SVGID_1_);}
	.st2{fill:url(#SVGID_2_);}
	.st3{fill:url(#SVGID_3_);}
	.st4{fill:url(#SVGID_4_);}
	.st5{fill:url(#SVGID_5_);}
</style>
<g>
	<g>
		<path class="st0" d="M132.8,17.6c-3.9-3.9-9.1-6-14.6-6c-5.3,0-10.3,2-14.2,5.7c-1-2.1-2.8-3.9-6.4-3.9c0,2.2,0,5.9,0,9.8l-8.7,8
			c-0.2-4.9-2.2-9.8-6-13.5c-8-8-21-8-29-0.1v-8c0,0,0.6-9.5-7.5-9.5c0,6.1,0,25,0,25h0l0,0c0,0,7,3.2,12.6-2.1
			c5.6-5.3,13.5-5.1,18.6,0c5.1,5.1,5.1,13.3,0.1,18.5l0,0l-0.1,0.1c-5.1,5.1-13.5,5.1-18.6,0c0.3,0.3,0.6,0.6,0.9,0.8
			c-0.3-0.3-0.6-0.5-0.9-0.8L47.1,29.6l0,0L35.2,17.7c-4-4-9.3-6-14.6-6c-4.7,0-9.3,1.6-13.1,4.7V9.5C7.5,9.5,8.1,0,0,0
			c0,6.1,0,32.2,0,32.2h0c0,5.3,2,10.6,6,14.6c8,8,21.1,8,29.2,0l7.3-7.3c0,0-7-3.2-12.6,2.1c-5.6,5.3-13.5,5.1-18.6,0
			c-2.6-2.6-3.8-5.9-3.8-9.3h0v0c0-3.3,1.2-6.6,3.7-9.1l0.4-0.4c5.1-4.9,13.3-4.8,18.3,0.2l11.9,11.9h0l11.9,11.9c4,4,9.3,6,14.6,6
			c5.3,0,10.5-2,14.5-6l14.7-13.5c0,2.9,0,4.9,0,4.9c0,5.4,0,11.7,0,14.7c8.1,0,7.5-9.5,7.5-9.5v-5.2V28.1v-1.6l3.7-3.4l0.1-0.1
			c2.5-2.5,5.8-3.9,9.3-3.9c3.5,0,6.8,1.4,9.3,3.9c2.5,2.5,3.9,5.8,3.9,9.3v2.7v2.6v5.9v1c0.1,2.4,1,8.5,7.5,8.5V37.5v-2.6v-2.7
			C138.8,26.7,136.7,21.5,132.8,17.6z"/>
		<path class="st0" d="M98.2,7.3L98.2,7.3l3,3l3-3c1.7-1.7,1.7-4.4,0-6c0,0,0,0,0,0l0,0c-1.7-1.7-4.4-1.7-6,0
			C96.6,2.9,96.6,5.6,98.2,7.3z"/>
	</g>
	<linearGradient id="SVGID_1_" gradientUnits="userSpaceOnUse" x1="50.1593" y1="9.7626" x2="50.1593" y2="23.8683">
		<stop  offset="0" style="stop-color:#FFFFFF"/>
		<stop  offset="1" style="stop-color:#999999"/>
	</linearGradient>
	<path class="st1" d="M53.9,17.5v-8c0,0,0.6-9.5-7.5-9.5c0,6.1,0,25,0,25h0.2l7.2-7.3C53.8,17.6,53.8,17.6,53.9,17.5z"/>
	<linearGradient id="SVGID_2_" gradientUnits="userSpaceOnUse" x1="102.0999" y1="17.0267" x2="101.4523" y2="35.1618">
		<stop  offset="0" style="stop-color:#FFFFFF"/>
		<stop  offset="0.4185" style="stop-color:#999999"/>
		<stop  offset="0.9956" style="stop-color:#FFFFFF"/>
	</linearGradient>
	<path class="st2" d="M97.6,33.3c0,2.9,0,4.9,0,4.9c0,5.4,0,11.7,0,14.7c8.1,0,7.5-9.5,7.5-9.5v-5.2V28.1v-1.6l-1.2,1.1L97.6,33.3z"
		/>
	<linearGradient id="SVGID_3_" gradientUnits="userSpaceOnUse" x1="3.4978" y1="10.8455" x2="2.3656" y2="23.7531">
		<stop  offset="0" style="stop-color:#FFFFFF"/>
		<stop  offset="1" style="stop-color:#999999"/>
	</linearGradient>
	<path class="st3" d="M6.2,17.5c0.4-0.4,0.8-0.8,1.3-1.1V9.5C7.5,9.5,8.1,0,0,0c0,6.1,0,32.2,0,32.2h0c0-5.2,1.9-10.3,5.7-14.3
		L6.2,17.5z"/>
	<linearGradient id="SVGID_4_" gradientUnits="userSpaceOnUse" x1="67.3446" y1="25.8681" x2="72.9293" y2="41.1442">
		<stop  offset="0" style="stop-color:#FFFFFF"/>
		<stop  offset="1" style="stop-color:#999999"/>
	</linearGradient>
	<path class="st4" d="M82.9,17.7c-8-8-21-8-29-0.1c0,0-0.1,0.1-0.1,0.1l-7.2,7.2L46.4,25c0,0,7,3.2,12.6-2.1
		c5.6-5.3,13.5-5.1,18.6,0c5.1,5.1,5.1,13.3,0.1,18.5l11.1-10.2C88.6,26.3,86.7,21.4,82.9,17.7z"/>
	<linearGradient id="SVGID_5_" gradientUnits="userSpaceOnUse" x1="100.7773" y1="19.1295" x2="100.936" y2="26.9196">
		<stop  offset="0" style="stop-color:#FFFFFF"/>
		<stop  offset="0.4185" style="stop-color:#999999"/>
		<stop  offset="0.9956" style="stop-color:#FFFFFF"/>
	</linearGradient>
	<path class="st5" d="M103.7,17.6c0.1-0.1,0.2-0.2,0.3-0.3c-1-2.1-2.8-3.9-6.4-3.9c0,2.2,0,5.9,0,9.8l1.2-1.1L103.7,17.6z"/>
</g>
</svg>
